<svg fill="none" height="100%" width="100%" viewBox="0 0 398 343" xmlns:xlink="http://www.w3.org/1999/xlink" xmlns="http://www.w3.org/2000/svg"><defs><radialGradient id="i0" gradientUnits="userSpaceOnUse" spreadMethod="pad" cx="-0.975" cy="-53.531" r="87.071" fy="-53.531" fx="-0.975"><stop offset="4%" stop-color="#06cff1" /><stop offset="52%" stop-color="#72e4c0" /><stop offset="100%" stop-color="#defa8e" /></radialGradient><linearGradient id="i1" gradientUnits="userSpaceOnUse" spreadMethod="pad" x2="4.183" y2="-0.739" x1="-10.514" y1="1.404"><stop offset="4%" stop-color="#06cff1" /><stop offset="52%" stop-color="#72e4c0" /><stop offset="100%" stop-color="#defa8e" /></linearGradient><linearGradient id="i2" gradientUnits="userSpaceOnUse" spreadMethod="pad" x2="5.935" y2="-1.215" x1="-13.514" y1="1.621"><stop offset="4%" stop-color="#06cff1" /><stop offset="52%" stop-color="#72e4c0" /><stop offset="100%" stop-color="#defa8e" /></linearGradient><linearGradient id="i3" gradientUnits="userSpaceOnUse" spreadMethod="pad" x2="11.567" y2="-14.311" x1="-14.514" y1="15.135"><stop offset="4%" stop-color="#06cff1" /><stop offset="52%" stop-color="#72e4c0" /><stop offset="100%" stop-color="#defa8e" /></linearGradient><linearGradient id="i4" gradientUnits="userSpaceOnUse" spreadMethod="pad" x2="52.182" y2="-6.622" x1="-37.066" y1="-75.984"><stop offset="4%" stop-color="#06bed8" /><stop offset="52%" stop-color="#72dcb3" /><stop offset="100%" stop-color="#defa8e" /></linearGradient><linearGradient id="i5" gradientUnits="userSpaceOnUse" spreadMethod="pad" x2="45.95" y2="-66.648" x1="-33.331" y1="25.931"><stop offset="4%" stop-color="#06cff1" /><stop offset="21.6%" stop-color="#4addd2" /><stop offset="54.2%" stop-color="#8eeab3" /><stop offset="78.1%" stop-color="#b6f2a0" /><stop offset="100%" stop-color="#defa8e" /></linearGradient><linearGradient id="i6" gradientUnits="userSpaceOnUse" spreadMethod="pad" x2="24.579" y2="-12.756" x1="-17.49" y1="9.167"><stop offset="4%" stop-color="#06bed8" /><stop offset="52%" stop-color="#72dcb3" /><stop offset="100%" stop-color="#defa8e" /></linearGradient><linearGradient id="i7" gradientUnits="userSpaceOnUse" spreadMethod="pad" x2="-5.901" y2="-48.065" x1="3.191" y1="45.655"><stop offset="4%" stop-color="#06cff1" /><stop offset="46.1%" stop-color="#72e4c0" /><stop offset="100%" stop-color="#defa8e" /></linearGradient><linearGradient id="i8" gradientUnits="userSpaceOnUse" spreadMethod="pad" x2="51.835" y2="-44.081" x1="-51.514" y1="59.268"><stop offset="4%" stop-color="#06cff1" /><stop offset="52%" stop-color="#72e4c0" /><stop offset="100%" stop-color="#defa8e" /></linearGradient><linearGradient id="i9" gradientUnits="userSpaceOnUse" spreadMethod="pad" x2="0.405" y2="-19.137" x1="-0.514" y1="22.196"><stop offset="0%" stop-color="#030d14" /><stop offset="50%" stop-color="#071e2d" /><stop offset="100%" stop-color="#0b2f45" /></linearGradient><radialGradient id="i10" gradientUnits="userSpaceOnUse" spreadMethod="pad" cx="-0.253" cy="-0.732" r="17.179" fy="-0.732" fx="-0.253"><stop offset="13%" stop-color="#3280fc" /><stop offset="56.5%" stop-color="#19407e" /><stop offset="100%" stop-color="#000000" /></radialGradient><linearGradient id="i11" gradientUnits="userSpaceOnUse" spreadMethod="pad" x2="9.676" y2="-0.732" x1="-11.253" y1="-0.732"><stop offset="0%" stop-color="#030d14" /><stop offset="50%" stop-color="#071e2d" /><stop offset="100%" stop-color="#0b2f45" /></linearGradient><radialGradient id="i12" gradientUnits="userSpaceOnUse" spreadMethod="pad" cx="-0.145" cy="-0.732" r="17.178" fy="-0.732" fx="-0.145"><stop offset="13%" stop-color="#3280fc" /><stop offset="56.5%" stop-color="#19407e" /><stop offset="100%" stop-color="#000000" /></radialGradient><linearGradient id="i13" gradientUnits="userSpaceOnUse" spreadMethod="pad" x2="9.784" y2="-0.732" x1="-11.145" y1="-0.732"><stop offset="0%" stop-color="#030d14" /><stop offset="50%" stop-color="#071e2d" /><stop offset="100%" stop-color="#0b2f45" /></linearGradient><linearGradient id="i14" gradientUnits="userSpaceOnUse" spreadMethod="pad" x2="24.594" y2="-29.116" x1="-5.329" y1="0.807"><stop offset="7.1%" stop-color="#0da9ab" /><stop offset="53.6%" stop-color="#76d29d" /><stop offset="100%" stop-color="#defa8e" /></linearGradient><linearGradient id="i15" gradientUnits="userSpaceOnUse" spreadMethod="pad" x2="3.382" y2="14.877" x1="-9.477" y1="-20.027"><stop offset="0%" stop-color="#aef0eb" /><stop offset="14.6%" stop-color="#c3f4eb" /><stop offset="100%" stop-color="#d7f8ea" /></linearGradient><linearGradient id="i16" gradientUnits="userSpaceOnUse" spreadMethod="pad" x2="80.733" y2="-0.406" x1="-81.241" y1="-0.406"><stop offset="0%" stop-color="#d7f8ea" /><stop offset="25.3%" stop-color="#e1f8ee" /><stop offset="50.5%" stop-color="#ecf8f2" /><stop offset="75.3%" stop-color="#e1f8ee" /><stop offset="100%" stop-color="#d7f8ea" /></linearGradient><linearGradient id="i17" gradientUnits="userSpaceOnUse" spreadMethod="pad" x2="117.938" y2="-34.483" x1="-11.363" y1="-0.621"><stop offset="4%" stop-color="#06cff1" /><stop offset="52%" stop-color="#72e4c0" /><stop offset="100%" stop-color="#defa8e" /></linearGradient><linearGradient id="i18" gradientUnits="userSpaceOnUse" spreadMethod="pad" x2="92.975" y2="-25.822" x1="-36.328" y1="8.04"><stop offset="4%" stop-color="#06cff1" /><stop offset="52%" stop-color="#72e4c0" /><stop offset="100%" stop-color="#defa8e" /></linearGradient><linearGradient id="i19" gradientUnits="userSpaceOnUse" spreadMethod="pad" x2="75.018" y2="-21.366" x1="-54.28" y1="12.495"><stop offset="4%" stop-color="#06cff1" /><stop offset="52%" stop-color="#72e4c0" /><stop offset="100%" stop-color="#defa8e" /></linearGradient><linearGradient id="i20" gradientUnits="userSpaceOnUse" spreadMethod="pad" x2="62.095" y2="-17.166" x1="-67.203" y1="16.695"><stop offset="4%" stop-color="#06cff1" /><stop offset="52%" stop-color="#72e4c0" /><stop offset="100%" stop-color="#defa8e" /></linearGradient><linearGradient id="i21" gradientUnits="userSpaceOnUse" spreadMethod="pad" x2="45.181" y2="-12.358" x1="-84.122" y1="21.504"><stop offset="4%" stop-color="#06cff1" /><stop offset="52%" stop-color="#72e4c0" /><stop offset="100%" stop-color="#defa8e" /></linearGradient><linearGradient id="i22" gradientUnits="userSpaceOnUse" spreadMethod="pad" x2="26.897" y2="-5.687" x1="-102.402" y1="28.174"><stop offset="4%" stop-color="#06cff1" /><stop offset="52%" stop-color="#72e4c0" /><stop offset="100%" stop-color="#defa8e" /></linearGradient></defs><g id="i23"><g transform="translate(283.742,306.555)"><g transform="scale(0.66,0.66)"><animateTransform repeatCount="indefinite" type="scale" attributeName="transform" dur="6s" begin="0s" calcMode="spline" values="0.66 0.66; 0.84 0.84; 0.66 0.66; 0.84 0.84; 0.66 0.66; 0.84 0.84; 0.66 0.66" keyTimes="0; 0.166667; 0.333333; 0.5; 0.666667; 0.833333; 1" keySplines="0.333 0 0.667 1; 0.333 0 0.667 1; 0.333 0 0.667 1; 0.333 0 0.667 1; 0.333 0 0.667 1; 0.333 0 0.667 1" fill="freeze" /><g transform="translate(0,0)"><g id="i24"><path fill="url(#i0)" d="M49.07,0C49.07,11.095,27.1,20.089,0,20.089C-27.101,20.089,-49.07,11.095,-49.07,0C-49.07,-11.095,-27.101,-20.089,0,-20.089C27.1,-20.089,49.07,-11.095,49.07,0Z" /></g></g></g></g></g><g id="i25"><g transform="translate(285.11,272.553)"><animateTransform repeatCount="indefinite" type="translate" attributeName="transform" dur="6s" begin="0s" calcMode="spline" values="285.11 272.553; 285.11 288.553; 285.11 272.553; 285.11 288.553; 285.11 272.553; 285.11 288.553; 285.11 272.553" keyTimes="0; 0.166667; 0.333333; 0.5; 0.666667; 0.833333; 1" keySplines="0.333 0 0.667 1; 0.333 0 0.667 1; 0.333 0 0.667 1; 0.333 0 0.667 1; 0.333 0 0.667 1; 0.333 0 0.667 1" fill="freeze" /><g transform="scale(1,1) translate(-50,-50)"><g id="i26"><g transform="translate(50,50)"><g transform="rotate(0)"><animateTransform repeatCount="indefinite" type="rotate" attributeName="transform" dur="6s" begin="0s" calcMode="spline" values="0; 3; 3; 0; 0" keyTimes="0; 0.055556; 0.338889; 0.394445; 1" keySplines="0.333 0 0.667 1; 0.333 0 0.667 1; 0.333 0 0.667 1; 0 0 1 1" fill="freeze" /><g transform="scale(1,1) translate(-561.11,-655.553)"><g id="i27"><g transform="translate(557.793,570.027)"><g transform="rotate(0)"><animateTransform repeatCount="indefinite" type="rotate" attributeName="transform" dur="6s" begin="0s" calcMode="spline" values="0; 5; 5; 0; 0" keyTimes="0; 0.055556; 0.338889; 0.394445; 1" keySplines="0.333 0 0.667 1; 0.333 0 0.667 1; 0.333 0 0.667 1; 0 0 1 1" fill="freeze" /><g transform="scale(1,1) translate(-557.793,-570.027)"><g id="i28"><g transform="translate(557.293,467.775)"><animateTransform repeatCount="indefinite" type="translate" attributeName="transform" dur="6s" begin="0s" calcMode="spline" values="557.293 467.775; 557.293 467.775; 572.293 467.775; 572.293 467.775; 557.293 467.775; 557.293 467.775" keyTimes="0; 0.505555; 0.561111; 0.688889; 0.744444; 1" keySplines="0 0 1 1; 0.333 0 0.667 1; 0 0 1 1; 0.333 0 0.667 1; 0 0 1 1" fill="freeze" /><g transform="scale(1,1) translate(-557.293,-467.775)"><g><g transform="translate(557.293,450.733)"><g transform="rotate(0)"><animateTransform repeatCount="indefinite" type="rotate" attributeName="transform" dur="6s" begin="0s" calcMode="spline" values="0; 0; 6; -6; 6; -6; 6; -6; 6; 0; 0" keyTimes="0; 0.816667; 0.833333; 0.85; 0.866667; 0.883333; 0.9; 0.916667; 0.933333; 0.95; 1" keySplines="0 0 1 1; 0.333 0 0.667 1; 0.333 0 0.667 1; 0.333 0 0.667 1; 0.333 0 0.667 1; 0.306 0 0.667 1; 0.333 0 0.667 1; 0.333 0 0.667 1; 0.333 0 0.667 1; 0 0 1 1" fill="freeze" /><g id="i29" transform="translate(-557.293,-450.733)"><g id="i29" transform="matrix(1,0,0,1,557.293,433.943)"><path fill="url(#i1)" d="M2.449,16.074C2.449,16.074,-2.449,16.074,-2.449,16.074C-2.449,16.074,-2.449,-16.074,-2.449,-16.074C-2.449,-16.074,2.449,-16.074,2.449,-16.074C2.449,-16.074,2.449,16.074,2.449,16.074Z" /></g><g id="i30" transform="matrix(1,0,0,1,557.293,415.726)"><path fill="url(#i2)" d="M6.277,0C6.277,3.467,3.467,6.277,0,6.277C-3.466,6.277,-6.277,3.467,-6.277,0C-6.277,-3.466,-3.466,-6.277,0,-6.277C3.467,-6.277,6.277,-3.466,6.277,0Z" /></g><g id="i31" transform="matrix(1,0,0,1,559.742,413.276)"><path fill="#ffffff" d="M1.914,0C1.914,1.057,1.057,1.914,0,1.914C-1.057,1.914,-1.914,1.057,-1.914,0C-1.914,-1.057,-1.057,-1.914,0,-1.914C1.057,-1.914,1.914,-1.057,1.914,0Z" /></g></g></g></g></g><g id="i32" transform="matrix(1,0,0,1,557.293,457.212)"><path fill="url(#i3)" d="M16.917,10.563C16.917,10.563,-16.917,10.563,-16.917,10.563C-19.412,10.563,-21.434,8.541,-21.434,6.046C-21.434,6.046,-21.434,-6.046,-21.434,-6.046C-21.434,-8.541,-19.412,-10.563,-16.917,-10.563C-16.917,-10.563,16.917,-10.563,16.917,-10.563C19.412,-10.563,21.434,-8.541,21.434,-6.046C21.434,-6.046,21.434,6.046,21.434,6.046C21.434,8.541,19.412,10.563,16.917,10.563Z" /></g><g id="i24" transform="matrix(1,0,0,1,567.921,449.981)"><path fill="#ffffff" d="M9.565,2.923C9.409,2.945,9.31,2.027,8.546,0.61C8.546,0.61,8.188,-0.052,7.78,-0.614C6.464,-2.424,2.007,-2.384,1.657,-2.381C-5.286,-2.321,-9.749,-2.76,-9.748,-2.719C-9.747,-2.684,-6.49,-2.75,-4.105,-2.799C2.626,-2.936,6.636,-3.298,8.355,-1.495C9.068,-0.747,9.426,0.228,9.426,0.228C9.912,1.55,9.751,2.896,9.565,2.923Z" /></g></g></g></g></g></g></g></g></g></g></g></g></g></g></g><g id="i25"><g transform="translate(285.11,272.553)"><animateTransform repeatCount="indefinite" type="translate" attributeName="transform" dur="6s" begin="0s" calcMode="spline" values="285.11 272.553; 285.11 288.553; 285.11 272.553; 285.11 288.553; 285.11 272.553; 285.11 288.553; 285.11 272.553" keyTimes="0; 0.166667; 0.333333; 0.5; 0.666667; 0.833333; 1" keySplines="0.333 0 0.667 1; 0.333 0 0.667 1; 0.333 0 0.667 1; 0.333 0 0.667 1; 0.333 0 0.667 1; 0.333 0 0.667 1" fill="freeze" /><g transform="scale(1,1) translate(-50,-50)"><g id="i26"><g transform="translate(50,50)"><g transform="rotate(0)"><animateTransform repeatCount="indefinite" type="rotate" attributeName="transform" dur="6s" begin="0s" calcMode="spline" values="0; 3; 3; 0; 0" keyTimes="0; 0.055556; 0.338889; 0.394445; 1" keySplines="0.333 0 0.667 1; 0.333 0 0.667 1; 0.333 0 0.667 1; 0 0 1 1" fill="freeze" /><g transform="scale(1,1) translate(-561.11,-655.553)"><g id="i33"><g transform="translate(519.431,586.5)"><animateTransform repeatCount="indefinite" type="translate" attributeName="transform" dur="6s" begin="0s" calcMode="spline" values="519.431 586.5; 519.431 593; 519.431 593; 519.431 586.5; 519.431 586.5" keyTimes="0; 0.055556; 0.338889; 0.394445; 1" keySplines="0.333 0 0.667 1; 0.333 0 0.667 1; 0.333 0 0.667 1; 0 0 1 1" fill="freeze" /><g transform="rotate(-109)"><animateTransform repeatCount="indefinite" type="rotate" attributeName="transform" dur="6s" begin="0s" calcMode="spline" values="-109; 12; -21; 12; -21; 12; -21; 12; -21; 12; -21; 12; -109; -109" keyTimes="0; 0.055556; 0.083334; 0.111111; 0.138889; 0.166667; 0.194445; 0.222222; 0.25; 0.277778; 0.305556; 0.338889; 0.394445; 1" keySplines="0.333 0 0.667 1; 0.333 0 0.833 1; 0.167 0 0.667 1; 0.297 0 0.833 1; 0.167 0 0.667 1; 0.297 0 0.833 1; 0.214 0 0.667 1; 0.297 0 0.833 1; 0.191 0 0.667 1; 0.297 0 0.833 1; 0.167 0 0.709 1; 0.167 0 0.667 1; 0 0 1 1" fill="freeze" /><g transform="scale(1,1) translate(-23,-6)"><g id="i24"><path fill="url(#i4)" d="M-7.754,-14.419C15.263,-8.114,20.701,-9.879,24.803,-3.709C25.274,-3.001,27.679,0.619,27.197,5.265C26.813,8.967,24.752,11.824,23.454,13.08C15.569,20.713,-6.128,11.375,-18.554,1.162C-21.263,-1.065,-28.532,-7.038,-27.068,-11.281C-26.468,-13.019,-24.605,-13.883,-23.268,-14.481C-17.356,-17.125,-11.224,-15.37,-7.754,-14.419Z" /></g></g></g></g></g></g></g></g></g></g></g></g><g id="i25"><g transform="translate(285.11,272.553)"><animateTransform repeatCount="indefinite" type="translate" attributeName="transform" dur="6s" begin="0s" calcMode="spline" values="285.11 272.553; 285.11 288.553; 285.11 272.553; 285.11 288.553; 285.11 272.553; 285.11 288.553; 285.11 272.553" keyTimes="0; 0.166667; 0.333333; 0.5; 0.666667; 0.833333; 1" keySplines="0.333 0 0.667 1; 0.333 0 0.667 1; 0.333 0 0.667 1; 0.333 0 0.667 1; 0.333 0 0.667 1; 0.333 0 0.667 1" fill="freeze" /><g transform="scale(1,1) translate(-50,-50)"><g id="i26"><g transform="translate(50,50)"><g transform="rotate(0)"><animateTransform repeatCount="indefinite" type="rotate" attributeName="transform" dur="6s" begin="0s" calcMode="spline" values="0; 3; 3; 0; 0" keyTimes="0; 0.055556; 0.338889; 0.394445; 1" keySplines="0.333 0 0.667 1; 0.333 0 0.667 1; 0.333 0 0.667 1; 0 0 1 1" fill="freeze" /><g transform="scale(1,1) translate(-561.11,-655.553)"><g id="i31" transform="matrix(1,0,0,1,561.11,616.415)"><path fill="url(#i5)" d="M51.161,-21.117C51.161,-20.906,51.161,-20.703,51.152,-20.51C51.079,-18.581,50.628,-17.13,50.407,-16.478C44.078,2.857,40.285,13.053,34.967,21.301C34.048,22.725,33.084,24.093,32.046,25.434C30.687,27.225,29.199,28.971,27.546,30.771C23.872,34.767,18.314,36.576,16.523,37.2C9.974,39.515,4.188,39.092,0.339,39.129C0.339,39.129,-0.332,39.129,-0.332,39.129C-4.19,39.092,-9.967,39.515,-16.516,37.2C-18.307,36.576,-23.873,34.767,-27.538,30.771C-37.642,19.776,-41.527,10.637,-50.4,-16.478C-50.611,-17.102,-51.034,-18.452,-51.135,-20.262C-51.162,-20.785,-51.171,-21.309,-51.144,-21.833C-50.951,-25.075,-49.638,-28.254,-47.305,-31.156C-43.309,-36.134,-37.137,-38.863,-30.753,-38.89C-30.753,-38.89,0.008,-39.018,0.008,-39.018C0.008,-39.018,30.209,-39.138,30.209,-39.138C36.731,-39.166,43.05,-36.429,47.193,-31.386C49.196,-28.943,50.471,-26.306,50.94,-23.587C51.004,-23.201,51.059,-22.807,51.096,-22.421C51.133,-21.989,51.161,-21.558,51.161,-21.117Z" /></g><g id="i24" transform="matrix(1,0,0,1,591.268,615.18)"><path fill="url(#i6)" d="M4.809,22.536C3.89,23.96,2.926,25.328,1.888,26.669C1.557,26.329,1.263,25.989,0.997,25.677C-3.21,20.754,-3.256,14.379,-3.32,10.779C-3.77,-13.084,-7.003,-17.797,-2.236,-23.473C-1.887,-23.896,-0.611,-25.411,1.465,-26.669C-3.238,-21.011,-0.032,-16.254,0.418,7.536C0.482,11.136,0.537,17.512,4.735,22.444C4.763,22.471,4.791,22.499,4.809,22.536Z" /></g></g></g></g></g></g></g></g><g opacity="0" id="i25"><g transform="translate(285.11,272.553)"><animateTransform repeatCount="indefinite" type="translate" attributeName="transform" dur="6s" begin="0s" calcMode="spline" values="285.11 272.553; 285.11 288.553; 285.11 272.553; 285.11 288.553; 285.11 272.553; 285.11 288.553; 285.11 272.553" keyTimes="0; 0.166667; 0.333333; 0.5; 0.666667; 0.833333; 1" keySplines="0.333 0 0.667 1; 0.333 0 0.667 1; 0.333 0 0.667 1; 0.333 0 0.667 1; 0.333 0 0.667 1; 0.333 0 0.667 1" fill="freeze" /><g transform="scale(1,1) translate(-50,-50)" /></g></g><g id="i25"><g transform="translate(285.11,272.553)"><animateTransform repeatCount="indefinite" type="translate" attributeName="transform" dur="6s" begin="0s" calcMode="spline" values="285.11 272.553; 285.11 288.553; 285.11 272.553; 285.11 288.553; 285.11 272.553; 285.11 288.553; 285.11 272.553" keyTimes="0; 0.166667; 0.333333; 0.5; 0.666667; 0.833333; 1" keySplines="0.333 0 0.667 1; 0.333 0 0.667 1; 0.333 0 0.667 1; 0.333 0 0.667 1; 0.333 0 0.667 1; 0.333 0 0.667 1" fill="freeze" /><g transform="scale(1,1) translate(-50,-50)"><g id="i26"><g transform="translate(50,50)"><g transform="rotate(0)"><animateTransform repeatCount="indefinite" type="rotate" attributeName="transform" dur="6s" begin="0s" calcMode="spline" values="0; 3; 3; 0; 0" keyTimes="0; 0.055556; 0.338889; 0.394445; 1" keySplines="0.333 0 0.667 1; 0.333 0 0.667 1; 0.333 0 0.667 1; 0 0 1 1" fill="freeze" /><g transform="scale(1,1) translate(-561.11,-655.553)"><g transform="matrix(1,0,0,1,0,0)" id="i34"><g id="i30" transform="matrix(1,0,0,1,602.823,611.899)"><path fill="url(#i7)" d="M-11.135,10.821C-11.584,-13.04,-14.813,-17.759,-10.051,-23.435C-9.504,-24.087,-6.711,-27.416,-2.118,-28.266C1.542,-28.943,4.863,-27.77,6.435,-26.88C15.983,-21.47,13.151,1.98,6.861,16.784C5.49,20.012,1.811,28.671,-2.673,28.464C-4.51,28.379,-5.865,26.835,-6.816,25.722C-11.022,20.797,-11.067,14.419,-11.135,10.821Z" /></g><g id="i31" transform="matrix(1,0,0,1,609.992,597.233)"><path fill="#ffffff" d="M-0.45,5.617C-0.585,3.053,-1.066,1.167,-2.028,-2.604C-3.286,-7.538,-4.864,-9.943,-3.839,-10.896C-3.172,-11.516,-1.858,-11.097,-1.56,-11.002C2.95,-9.563,4.346,-1.102,4.152,4.194C4.033,7.436,3.241,11.061,2.053,11.221C1.866,11.246,1.4,11.222,1.067,10.927C-0.258,9.755,-0.347,7.566,-0.45,5.617Z" /></g><g id="i24" transform="matrix(1,0,0,1,611.703,611.899)"><path fill="#ffffff" d="M0.936,0C0.936,0.517,0.517,0.936,0,0.936C-0.517,0.936,-0.936,0.517,-0.936,0C-0.936,-0.517,-0.517,-0.936,0,-0.936C0.517,-0.936,0.936,-0.517,0.936,0Z" /></g></g></g></g></g></g></g></g></g><g id="i25"><g transform="translate(285.11,272.553)"><animateTransform repeatCount="indefinite" type="translate" attributeName="transform" dur="6s" begin="0s" calcMode="spline" values="285.11 272.553; 285.11 288.553; 285.11 272.553; 285.11 288.553; 285.11 272.553; 285.11 288.553; 285.11 272.553" keyTimes="0; 0.166667; 0.333333; 0.5; 0.666667; 0.833333; 1" keySplines="0.333 0 0.667 1; 0.333 0 0.667 1; 0.333 0 0.667 1; 0.333 0 0.667 1; 0.333 0 0.667 1; 0.333 0 0.667 1" fill="freeze" /><g transform="scale(1,1) translate(-50,-50)"><g id="i26"><g transform="translate(50,50)"><g transform="rotate(0)"><animateTransform repeatCount="indefinite" type="rotate" attributeName="transform" dur="6s" begin="0s" calcMode="spline" values="0; 3; 3; 0; 0" keyTimes="0; 0.055556; 0.338889; 0.394445; 1" keySplines="0.333 0 0.667 1; 0.333 0 0.667 1; 0.333 0 0.667 1; 0 0 1 1" fill="freeze" /><g transform="scale(1,1) translate(-561.11,-655.553)"><g id="i27"><g transform="translate(557.793,570.027)"><g transform="rotate(0)"><animateTransform repeatCount="indefinite" type="rotate" attributeName="transform" dur="6s" begin="0s" calcMode="spline" values="0; 5; 5; 0; 0" keyTimes="0; 0.055556; 0.338889; 0.394445; 1" keySplines="0.333 0 0.667 1; 0.333 0 0.667 1; 0.333 0 0.667 1; 0 0 1 1" fill="freeze" /><g transform="scale(1,1) translate(-557.793,-570.027)"><g id="i32" transform="matrix(1,0,0,1,557.293,515.079)"><path fill="url(#i8)" d="M76.697,22.963C76.697,42.494,60.864,58.326,41.334,58.326C41.334,58.326,-41.333,58.326,-41.333,58.326C-60.783,58.326,-76.697,42.413,-76.697,22.963C-76.697,22.963,-76.697,4.593,-76.697,4.593C-76.697,-30.012,-48.383,-58.326,-13.778,-58.326C-13.778,-58.326,13.778,-58.326,13.778,-58.326C48.383,-58.326,76.697,-30.012,76.697,4.593C76.697,4.593,76.697,22.963,76.697,22.963Z" /></g><g id="i30" transform="matrix(1,0,0,1,602.823,475.048)"><path fill="#ffffff" d="M8.514,1.831C8.597,4.761,6.206,8.265,3.465,8.565C0.897,8.846,-1.155,6.222,-3.27,3.516C-5.355,0.849,-9.914,-6.003,-8.098,-7.941C-5.703,-10.497,8.317,-5.082,8.514,1.831Z" /></g><g id="i31" transform="matrix(1,0,0,1,587.875,463.527)"><path fill="#ffffff" d="M2.182,0C2.182,1.205,1.205,2.182,0,2.182C-1.205,2.182,-2.182,1.205,-2.182,0C-2.182,-1.205,-1.205,-2.182,0,-2.182C1.205,-2.182,2.182,-1.205,2.182,0Z" /></g></g></g></g></g></g></g></g></g></g></g></g><g id="i25"><g transform="translate(285.11,272.553)"><animateTransform repeatCount="indefinite" type="translate" attributeName="transform" dur="6s" begin="0s" calcMode="spline" values="285.11 272.553; 285.11 288.553; 285.11 272.553; 285.11 288.553; 285.11 272.553; 285.11 288.553; 285.11 272.553" keyTimes="0; 0.166667; 0.333333; 0.5; 0.666667; 0.833333; 1" keySplines="0.333 0 0.667 1; 0.333 0 0.667 1; 0.333 0 0.667 1; 0.333 0 0.667 1; 0.333 0 0.667 1; 0.333 0 0.667 1" fill="freeze" /><g transform="scale(1,1) translate(-50,-50)"><g id="i26"><g transform="translate(50,50)"><g transform="rotate(0)"><animateTransform repeatCount="indefinite" type="rotate" attributeName="transform" dur="6s" begin="0s" calcMode="spline" values="0; 3; 3; 0; 0" keyTimes="0; 0.055556; 0.338889; 0.394445; 1" keySplines="0.333 0 0.667 1; 0.333 0 0.667 1; 0.333 0 0.667 1; 0 0 1 1" fill="freeze" /><g transform="scale(1,1) translate(-561.11,-655.553)"><g id="i27"><g transform="translate(557.793,570.027)"><g transform="rotate(0)"><animateTransform repeatCount="indefinite" type="rotate" attributeName="transform" dur="6s" begin="0s" calcMode="spline" values="0; 5; 5; 0; 0" keyTimes="0; 0.055556; 0.338889; 0.394445; 1" keySplines="0.333 0 0.667 1; 0.333 0 0.667 1; 0.333 0 0.667 1; 0 0 1 1" fill="freeze" /><g transform="scale(1,1) translate(-557.793,-570.027)"><g id="i35"><g transform="translate(557.293,513.151)"><animateTransform repeatCount="indefinite" type="translate" attributeName="transform" dur="6s" begin="0s" calcMode="spline" values="557.293 513.151; 557.293 513.151; 544.293 513.151; 544.293 513.151; 557.293 513.151; 557.293 513.151" keyTimes="0; 0.505555; 0.561111; 0.688889; 0.744444; 1" keySplines="0 0 1 1; 0.333 0 0.667 1; 0 0 1 1; 0.333 0 0.667 1; 0 0 1 1" fill="freeze" /><g transform="scale(1,1) translate(-557.293,-513.151)"><g id="i31" transform="matrix(1,0,0,1,557.293,513.151)"><path fill="url(#i9)" d="M52.57,21.542C52.57,21.542,52.57,21.542,52.57,21.542C50.563,22.534,48.312,23.054,46.026,23.054C46.026,23.054,-46.026,23.054,-46.026,23.054C-48.312,23.054,-50.563,22.534,-52.57,21.542C-52.57,21.542,-52.57,21.542,-52.57,21.542C-57.5,19.106,-60.282,14.185,-59.586,9.136C-59.586,9.136,-59.535,8.768,-59.535,8.768C-57.176,-8.331,-41.689,-21.477,-22.704,-22.464C-14.671,-22.882,-6.241,-23.098,2.552,-23.047C9.44,-23.007,16.099,-22.805,22.509,-22.474C41.567,-21.492,57.167,-8.398,59.535,8.766C59.552,8.889,59.568,9.013,59.585,9.136C60.282,14.185,57.5,19.106,52.57,21.542Z" /></g><g id="i24" transform="matrix(1,0,0,1,597.281,505.508)"><path fill="#ffffff" d="M13.745,12.019C13.045,12.513,8.165,2.573,-4.932,-6.045C-9.536,-9.074,-14.081,-11.235,-13.811,-11.863C-13.537,-12.5,-8.418,-11.314,-4.32,-9.413C8.737,-3.355,14.577,11.432,13.745,12.019Z" /></g></g></g></g></g></g></g></g></g></g></g></g></g></g></g><g id="i25"><g transform="translate(285.11,272.553)"><animateTransform repeatCount="indefinite" type="translate" attributeName="transform" dur="6s" begin="0s" calcMode="spline" values="285.11 272.553; 285.11 288.553; 285.11 272.553; 285.11 288.553; 285.11 272.553; 285.11 288.553; 285.11 272.553" keyTimes="0; 0.166667; 0.333333; 0.5; 0.666667; 0.833333; 1" keySplines="0.333 0 0.667 1; 0.333 0 0.667 1; 0.333 0 0.667 1; 0.333 0 0.667 1; 0.333 0 0.667 1; 0.333 0 0.667 1" fill="freeze" /><g transform="scale(1,1) translate(-50,-50)"><g id="i26"><g transform="translate(50,50)"><g transform="rotate(0)"><animateTransform repeatCount="indefinite" type="rotate" attributeName="transform" dur="6s" begin="0s" calcMode="spline" values="0; 3; 3; 0; 0" keyTimes="0; 0.055556; 0.338889; 0.394445; 1" keySplines="0.333 0 0.667 1; 0.333 0 0.667 1; 0.333 0 0.667 1; 0 0 1 1" fill="freeze" /><g transform="scale(1,1) translate(-561.11,-655.553)"><g id="i27"><g transform="translate(557.793,570.027)"><g transform="rotate(0)"><animateTransform repeatCount="indefinite" type="rotate" attributeName="transform" dur="6s" begin="0s" calcMode="spline" values="0; 5; 5; 0; 0" keyTimes="0; 0.055556; 0.338889; 0.394445; 1" keySplines="0.333 0 0.667 1; 0.333 0 0.667 1; 0.333 0 0.667 1; 0 0 1 1" fill="freeze" /><g transform="scale(1,1) translate(-557.793,-570.027)"><g id="i35"><g transform="translate(557.293,513.151)"><animateTransform repeatCount="indefinite" type="translate" attributeName="transform" dur="6s" begin="0s" calcMode="spline" values="557.293 513.151; 557.293 513.151; 544.293 513.151; 544.293 513.151; 557.293 513.151; 557.293 513.151" keyTimes="0; 0.505555; 0.561111; 0.688889; 0.744444; 1" keySplines="0 0 1 1; 0.333 0 0.667 1; 0 0 1 1; 0.333 0 0.667 1; 0 0 1 1" fill="freeze" /><g transform="scale(1,1) translate(-557.293,-513.151)"><g id="i36"><g transform="translate(556.478,527.572)"><animateTransform repeatCount="indefinite" type="translate" attributeName="transform" dur="6s" begin="0s" calcMode="spline" values="556.478 527.572; 556.478 527.572; 546.478 527.572; 546.478 527.572; 556.478 527.572; 556.478 527.572" keyTimes="0; 0.505555; 0.561111; 0.688889; 0.744444; 1" keySplines="0 0 1 1; 0.333 0 0.667 1; 0 0 1 1; 0.333 0 0.667 1; 0 0 1 1" fill="freeze" /><g transform="scale(1,1) translate(-556.478,-527.572)"><g><g transform="translate(533.032,515.079)"><g transform="scale(1,1)"><animateTransform repeatCount="indefinite" type="scale" attributeName="transform" dur="6s" begin="0s" calcMode="spline" values="1 1; 1 1; 1 0; 1 0; 1 1; 1 1; 1 0; 1 0; 1 1; 1 1" keyTimes="0; 0.144445; 0.155556; 0.161111; 0.172222; 0.611111; 0.622222; 0.627778; 0.638889; 1" keySplines="0 0 1 1; 0.333 0 0.667 1; 0.302 0 0.667 1; 0.333 0 0.667 1; 0.161 0 0.833 1; 0.333 0 0.667 1; 0.302 0 0.667 1; 0.333 0 0.667 1; 0 0 1 1" fill="freeze" /><g id="i32" transform="translate(-533.032,-515.079)"><g id="i37" transform="matrix(1,0,0,1,533.032,515.079)"><path fill="url(#i10)" d="M17.358,0C17.358,9.586,9.586,17.358,0,17.358C-9.586,17.358,-17.358,9.586,-17.358,0C-17.358,-9.586,-9.586,-17.358,0,-17.358C9.586,-17.358,17.358,-9.586,17.358,0Z" /></g><g id="i29" transform="matrix(1,0,0,1,533.032,515.079)"><g id="i24"><path fill="#eefdff" d="M12.459,0C12.459,6.881,6.881,12.459,0,12.459C-6.881,12.459,-12.459,6.881,-12.459,0C-12.459,-6.881,-6.881,-12.459,0,-12.459C6.881,-12.459,12.459,-6.881,12.459,0Z" /></g></g><g id="i32" transform="matrix(1,0,0,1,533.032,515.079)"><g id="i24"><path fill="url(#i11)" d="M10.464,0C10.464,5.779,5.779,10.464,0,10.464C-5.779,10.464,-10.464,5.779,-10.464,0C-10.464,-5.779,-5.779,-10.464,0,-10.464C5.779,-10.464,10.464,-5.779,10.464,0Z" /></g></g><g id="i30" transform="matrix(1,0,0,1,535.859,512.367)"><g id="i24"><path fill="#eefdff" d="M3.876,0C3.876,2.141,2.141,3.876,0,3.876C-2.141,3.876,-3.876,2.141,-3.876,0C-3.876,-2.141,-2.141,-3.876,0,-3.876C2.141,-3.876,3.876,-2.141,3.876,0Z" /></g></g><g id="i31" transform="matrix(1,0,0,1,531.485,523.104)"><g id="i24"><path fill="#eefdff" d="M1.547,0C1.547,0.854,0.854,1.547,0,1.547C-0.854,1.547,-1.547,0.854,-1.547,0C-1.547,-0.854,-0.854,-1.547,0,-1.547C0.854,-1.547,1.547,-0.854,1.547,0Z" /></g></g><g id="i24" transform="matrix(1,0,0,1,526.876,520.784)"><g id="i24"><path fill="#eefdff" d="M0.773,0C0.773,0.427,0.427,0.773,0,0.773C-0.427,0.773,-0.773,0.427,-0.773,0C-0.773,-0.427,-0.427,-0.773,0,-0.773C0.427,-0.773,0.773,-0.427,0.773,0Z" /></g></g></g></g></g></g><g><g transform="translate(579.924,515.079)"><g transform="scale(1,1)"><animateTransform repeatCount="indefinite" type="scale" attributeName="transform" dur="6s" begin="0s" calcMode="spline" values="1 1; 1 1; 1 0; 1 0; 1 1; 1 1; 1 0; 1 0; 1 1; 1 1" keyTimes="0; 0.144445; 0.155556; 0.161111; 0.172222; 0.611111; 0.622222; 0.627778; 0.638889; 1" keySplines="0 0 1 1; 0.333 0 0.667 1; 0.302 0 0.667 1; 0.333 0 0.667 1; 0.161 0 0.833 1; 0.333 0 0.667 1; 0.302 0 0.667 1; 0.333 0 0.667 1; 0 0 1 1" fill="freeze" /><g id="i30" transform="translate(-579.924,-515.079)"><g id="i37" transform="matrix(1,0,0,1,579.924,515.079)"><path fill="url(#i12)" d="M17.358,0C17.358,9.586,9.586,17.358,0,17.358C-9.586,17.358,-17.358,9.586,-17.358,0C-17.358,-9.586,-9.586,-17.358,0,-17.358C9.586,-17.358,17.358,-9.586,17.358,0Z" /></g><g id="i29" transform="matrix(1,0,0,1,579.924,515.079)"><g id="i24"><path fill="#eefdff" d="M12.459,0C12.459,6.881,6.881,12.459,0,12.459C-6.881,12.459,-12.459,6.881,-12.459,0C-12.459,-6.881,-6.881,-12.459,0,-12.459C6.881,-12.459,12.459,-6.881,12.459,0Z" /></g></g><g id="i32" transform="matrix(1,0,0,1,579.924,515.079)"><g id="i24"><path fill="url(#i13)" d="M10.464,0C10.464,5.779,5.779,10.464,0,10.464C-5.779,10.464,-10.464,5.779,-10.464,0C-10.464,-5.779,-5.779,-10.464,0,-10.464C5.779,-10.464,10.464,-5.779,10.464,0Z" /></g></g><g id="i30" transform="matrix(1,0,0,1,582.751,512.367)"><g id="i24"><path fill="#eefdff" d="M3.876,0C3.876,2.141,2.141,3.876,0,3.876C-2.141,3.876,-3.876,2.141,-3.876,0C-3.876,-2.141,-2.141,-3.876,0,-3.876C2.141,-3.876,3.876,-2.141,3.876,0Z" /></g></g><g id="i31" transform="matrix(1,0,0,1,578.377,523.104)"><g id="i24"><path fill="#eefdff" d="M1.547,0C1.547,0.854,0.854,1.547,0,1.547C-0.854,1.547,-1.547,0.854,-1.547,0C-1.547,-0.854,-0.854,-1.547,0,-1.547C0.854,-1.547,1.547,-0.854,1.547,0Z" /></g></g><g id="i24" transform="matrix(1,0,0,1,573.768,520.784)"><g id="i24"><path fill="#eefdff" d="M0.773,0C0.773,0.427,0.427,0.773,0,0.773C-0.427,0.773,-0.773,0.427,-0.773,0C-0.773,-0.427,-0.427,-0.773,0,-0.773C0.427,-0.773,0.773,-0.427,0.773,0Z" /></g></g></g></g></g></g></g></g></g></g></g></g></g></g></g></g></g></g></g></g></g></g></g><g id="i25"><g transform="translate(285.11,272.553)"><animateTransform repeatCount="indefinite" type="translate" attributeName="transform" dur="6s" begin="0s" calcMode="spline" values="285.11 272.553; 285.11 288.553; 285.11 272.553; 285.11 288.553; 285.11 272.553; 285.11 288.553; 285.11 272.553" keyTimes="0; 0.166667; 0.333333; 0.5; 0.666667; 0.833333; 1" keySplines="0.333 0 0.667 1; 0.333 0 0.667 1; 0.333 0 0.667 1; 0.333 0 0.667 1; 0.333 0 0.667 1; 0.333 0 0.667 1" fill="freeze" /><g transform="scale(1,1) translate(-50,-50)"><g id="i26"><g transform="translate(50,50)"><g transform="rotate(0)"><animateTransform repeatCount="indefinite" type="rotate" attributeName="transform" dur="6s" begin="0s" calcMode="spline" values="0; 3; 3; 0; 0" keyTimes="0; 0.055556; 0.338889; 0.394445; 1" keySplines="0.333 0 0.667 1; 0.333 0 0.667 1; 0.333 0 0.667 1; 0 0 1 1" fill="freeze" /><g transform="scale(1,1) translate(-561.11,-655.553)"><g id="i27"><g transform="translate(557.793,570.027)"><g transform="rotate(0)"><animateTransform repeatCount="indefinite" type="rotate" attributeName="transform" dur="6s" begin="0s" calcMode="spline" values="0; 5; 5; 0; 0" keyTimes="0; 0.055556; 0.338889; 0.394445; 1" keySplines="0.333 0 0.667 1; 0.333 0 0.667 1; 0.333 0 0.667 1; 0 0 1 1" fill="freeze" /><g transform="scale(1,1) translate(-557.793,-570.027)"><g id="i35"><g transform="translate(557.293,513.151)"><animateTransform repeatCount="indefinite" type="translate" attributeName="transform" dur="6s" begin="0s" calcMode="spline" values="557.293 513.151; 557.293 513.151; 544.293 513.151; 544.293 513.151; 557.293 513.151; 557.293 513.151" keyTimes="0; 0.505555; 0.561111; 0.688889; 0.744444; 1" keySplines="0 0 1 1; 0.333 0 0.667 1; 0 0 1 1; 0.333 0 0.667 1; 0 0 1 1" fill="freeze" /><g transform="scale(1,1) translate(-557.293,-513.151)"><g id="i38"><g transform="translate(560.849,549.046)"><animateTransform repeatCount="indefinite" type="translate" attributeName="transform" dur="6s" begin="0s" calcMode="spline" values="560.849 549.046; 560.849 549.046; 550.849 549.046; 550.849 549.046; 560.849 549.046; 560.849 549.046" keyTimes="0; 0.505555; 0.561111; 0.688889; 0.744444; 1" keySplines="0 0 1 1; 0.333 0 0.667 1; 0 0 1 1; 0.333 0 0.667 1; 0 0 1 1" fill="freeze" /><g transform="scale(1,1) translate(-560.849,-549.046)"><g id="i29" transform="matrix(1,0,0,1,0,0)"><g id="i31" transform="matrix(1,0,0,1,560.849,544.83)"><path d="M8.928,0.341C8.597,1.98,6.969,1.494,5.297,1.491C5.297,1.491,-8.554,1.429,-8.554,1.429C-10.225,1.426,-11.599,1.908,-11.925,0.269C-12.07,-0.459,-12.163,-1.206,-12.202,-1.967C-12.213,-2.178,-12.137,-2.384,-11.992,-2.536C-11.847,-2.688,-11.645,-2.774,-11.434,-2.774C-11.434,-2.774,8.46,-2.702,8.46,-2.702C8.668,-2.702,8.865,-2.616,9.008,-2.465C9.151,-2.314,9.225,-2.111,9.214,-1.904C9.173,-1.14,9.076,-0.39,8.928,0.341Z" fill="#eefdff"><animate repeatCount="indefinite" attributeName="d" dur="6s" begin="0s" calcMode="spline" values="M8.928,0.341C8.597,1.98,6.969,1.494,5.297,1.491C5.297,1.491,-8.554,1.429,-8.554,1.429C-10.225,1.426,-11.599,1.908,-11.925,0.269C-12.07,-0.459,-12.163,-1.206,-12.202,-1.967C-12.213,-2.178,-12.137,-2.384,-11.992,-2.536C-11.847,-2.688,-11.645,-2.774,-11.434,-2.774C-11.434,-2.774,8.46,-2.702,8.46,-2.702C8.668,-2.702,8.865,-2.616,9.008,-2.465C9.151,-2.314,9.225,-2.111,9.214,-1.904C9.173,-1.14,9.076,-0.39,8.928,0.341Z; M15.194,-1.176C15.024,0.487,13.639,1.767,11.975,1.928C11.975,1.928,-11.019,4.145,-11.019,4.145C-12.682,4.306,-14.285,3.314,-14.77,1.715C-14.986,1.004,-15.152,0.27,-15.265,-0.483C-15.296,-0.691,-15.241,-0.903,-15.111,-1.069C-14.981,-1.235,-14.789,-1.341,-14.579,-1.361C-14.579,-1.361,14.43,-4.159,14.43,-4.159C14.637,-4.179,14.842,-4.113,14.999,-3.977C15.156,-3.841,15.25,-3.646,15.259,-3.438C15.292,-2.674,15.27,-1.918,15.194,-1.176Z; M15.194,-1.176C15.024,0.487,13.639,1.767,11.975,1.928C11.975,1.928,-11.019,4.145,-11.019,4.145C-12.682,4.306,-14.285,3.314,-14.77,1.715C-14.986,1.004,-15.152,0.27,-15.265,-0.483C-15.296,-0.691,-15.241,-0.903,-15.111,-1.069C-14.981,-1.235,-14.789,-1.341,-14.579,-1.361C-14.579,-1.361,14.43,-4.159,14.43,-4.159C14.637,-4.179,14.842,-4.113,14.999,-3.977C15.156,-3.841,15.25,-3.646,15.259,-3.438C15.292,-2.674,15.27,-1.918,15.194,-1.176Z; M8.928,0.341C8.597,1.98,6.969,1.494,5.297,1.491C5.297,1.491,-8.554,1.429,-8.554,1.429C-10.225,1.426,-11.599,1.908,-11.925,0.269C-12.07,-0.459,-12.163,-1.206,-12.202,-1.967C-12.213,-2.178,-12.137,-2.384,-11.992,-2.536C-11.847,-2.688,-11.645,-2.774,-11.434,-2.774C-11.434,-2.774,8.46,-2.702,8.46,-2.702C8.668,-2.702,8.865,-2.616,9.008,-2.465C9.151,-2.314,9.225,-2.111,9.214,-1.904C9.173,-1.14,9.076,-0.39,8.928,0.341Z; M8.928,0.341C8.597,1.98,6.969,1.494,5.297,1.491C5.297,1.491,-8.554,1.429,-8.554,1.429C-10.225,1.426,-11.599,1.908,-11.925,0.269C-12.07,-0.459,-12.163,-1.206,-12.202,-1.967C-12.213,-2.178,-12.137,-2.384,-11.992,-2.536C-11.847,-2.688,-11.645,-2.774,-11.434,-2.774C-11.434,-2.774,8.46,-2.702,8.46,-2.702C8.668,-2.702,8.865,-2.616,9.008,-2.465C9.151,-2.314,9.225,-2.111,9.214,-1.904C9.173,-1.14,9.076,-0.39,8.928,0.341Z" keyTimes="0; 0.055556; 0.338889; 0.394444; 1" keySplines="0.333 0 0.667 1; 0.333 0 0.667 1; 0.333 0 0.667 1; 0 0 1 1" fill="freeze" /></path></g><g id="i24" transform="matrix(1,0,0,1,561.108,550.539)"><path d="M8.42,-5.992C6.992,1.03,1.516,2.461,-2.284,2.409C-6.358,2.354,-10.49,0.606,-11.992,-6.279C-11.556,-4.796,-10.392,-4.28,-8.814,-4.282C-8.814,-4.282,5.042,-4.216,5.042,-4.216C6.713,-4.218,8.084,-4.355,8.42,-5.992Z" fill="url(#i14)"><animate repeatCount="indefinite" attributeName="d" dur="6s" begin="0s" calcMode="spline" values="M8.42,-5.992C6.992,1.03,1.516,2.461,-2.284,2.409C-6.358,2.354,-10.49,0.606,-11.992,-6.279C-11.556,-4.796,-10.392,-4.28,-8.814,-4.282C-8.814,-4.282,5.042,-4.216,5.042,-4.216C6.713,-4.218,8.084,-4.355,8.42,-5.992Z; M14.935,-6.884C14.2,0.244,8.533,6.104,1.13,6.811C-6.172,7.518,-12.767,2.99,-14.935,-3.715C-14.356,-2.282,-12.85,-1.41,-11.279,-1.566C-11.279,-1.566,11.72,-3.779,11.72,-3.779C13.382,-3.944,14.761,-5.222,14.935,-6.884Z; M14.935,-6.884C14.2,0.244,8.533,6.104,1.13,6.811C-6.172,7.518,-12.767,2.99,-14.935,-3.715C-14.356,-2.282,-12.85,-1.41,-11.279,-1.566C-11.279,-1.566,11.72,-3.779,11.72,-3.779C13.382,-3.944,14.761,-5.222,14.935,-6.884Z; M8.42,-5.992C6.992,1.03,1.516,2.461,-2.284,2.409C-6.358,2.354,-10.49,0.606,-11.992,-6.279C-11.556,-4.796,-10.392,-4.28,-8.814,-4.282C-8.814,-4.282,5.042,-4.216,5.042,-4.216C6.713,-4.218,8.084,-4.355,8.42,-5.992Z; M8.42,-5.992C6.992,1.03,1.516,2.461,-2.284,2.409C-6.358,2.354,-10.49,0.606,-11.992,-6.279C-11.556,-4.796,-10.392,-4.28,-8.814,-4.282C-8.814,-4.282,5.042,-4.216,5.042,-4.216C6.713,-4.218,8.084,-4.355,8.42,-5.992Z" keyTimes="0; 0.055556; 0.338889; 0.394444; 1" keySplines="0.333 0 0.667 1; 0.333 0 0.667 1; 0.333 0 0.667 1; 0 0 1 1" fill="freeze" /></path></g></g></g></g></g></g></g></g></g></g></g></g></g></g></g></g></g></g></g><g opacity="0.99" visibility="hidden" id="i39"><animate repeatCount="indefinite" begin="0s" calcMode="discrete" dur="6s" values="hidden; visible; hidden; hidden" keyTimes="0; 0.05; 0.417; 1" attributeName="visibility" /><g transform="translate(183.02,146.973)"><g transform="scale(0,0)"><animateTransform repeatCount="indefinite" type="scale" attributeName="transform" dur="6s" begin="0s" calcMode="spline" values="0 0; 0 0; 1.1 1.1; 1 1; 1 1; 1.1 1.1; 0 0; 0 0" keyTimes="0; 0.05; 0.094444; 0.122222; 0.344444; 0.372222; 0.416667; 1" keySplines="0 0 1 1; 0.333 0 0.667 1; 0.333 0 0.667 1; 0.157 0 0.667 1; 0.333 0 0.667 1; 0.333 0 0.667 1; 0 0 1 1" fill="freeze" /><g transform="translate(-459.02,-518.973)"><g id="i40" transform="matrix(1,0,0,1,441.256,507.373)"><path fill="url(#i15)" d="M10.216,-17.277C10.216,-17.277,12.291,10.68,23.926,17.277C23.926,17.277,-13.428,10.826,-22.613,-3.164C-31.798,-17.154,10.216,-17.277,10.216,-17.277Z" /></g><g id="i41" transform="matrix(1,0,0,1,390.02,456.753)"><path fill="url(#i16)" d="M33.53,47.457C33.53,47.457,-33.53,47.457,-33.53,47.457C-59.631,47.457,-80.987,26.101,-80.987,0C-80.987,0,-80.987,0,-80.987,0C-80.987,-26.101,-59.631,-47.457,-33.53,-47.457C-33.53,-47.457,33.53,-47.457,33.53,-47.457C59.631,-47.457,80.987,-26.101,80.987,0C80.987,0,80.987,0,80.987,0C80.987,26.101,59.631,47.457,33.53,47.457Z" /></g><g id="i42" transform="matrix(1,0,0,1,0,0)"><g id="i37" transform="matrix(1,0,0,1,346.102,459.489)"><path fill="url(#i17)" d="M13.837,15.424C13.862,15.97,12.253,16.317,9.01,16.466C5.766,16.615,4.131,16.417,4.106,15.871C4.106,15.871,3.597,4.791,3.597,4.791C3.597,4.791,-3.147,5.101,-3.147,5.101C-3.147,5.101,-2.638,16.181,-2.638,16.181C-2.613,16.727,-4.222,17.074,-7.466,17.223C-10.71,17.372,-12.344,17.174,-12.369,16.628C-12.369,16.628,-13.837,-15.311,-13.837,-15.311C-13.868,-15.985,-12.262,-16.397,-9.018,-16.546C-5.774,-16.695,-4.137,-16.432,-4.106,-15.758C-4.106,-15.758,-3.586,-4.437,-3.586,-4.437C-3.586,-4.437,3.159,-4.747,3.159,-4.747C3.159,-4.747,2.643,-15.971,2.643,-15.971C2.622,-16.42,3.41,-16.78,5.007,-17.046C5.839,-17.148,6.656,-17.218,7.459,-17.255C7.459,-17.255,9.92,-17.271,9.92,-17.271C11.535,-17.152,12.353,-16.868,12.374,-16.419C12.374,-16.419,13.837,15.424,13.837,15.424Z" /></g><g id="i29" transform="matrix(1,0,0,1,373.591,463.002)"><path fill="url(#i18)" d="M9.112,10.382C7.143,11.663,4.569,12.377,1.39,12.523C-1.789,12.669,-4.521,11.708,-6.804,9.641C-9.088,7.574,-10.318,4.621,-10.494,0.783C-10.67,-3.054,-9.761,-6.194,-7.765,-8.635C-5.77,-11.076,-3.166,-12.37,0.046,-12.518C3.257,-12.666,5.776,-11.96,7.602,-10.403C9.428,-8.845,10.394,-6.895,10.502,-4.551C10.741,0.652,7.874,3.39,1.901,3.665C1.901,3.665,-1.423,3.818,-1.423,3.818C-1.379,4.782,-1.084,5.437,-0.537,5.781C0.01,6.126,0.797,6.274,1.825,6.227C4.073,6.124,6.185,5.512,8.161,4.391C8.191,4.358,8.347,4.576,8.626,5.046C9.46,6.392,9.898,7.538,9.942,8.485C9.986,9.433,9.708,10.065,9.112,10.382ZM2.451,-3.263C2.389,-4.612,1.699,-5.257,0.383,-5.196C-0.228,-5.168,-0.741,-4.959,-1.157,-4.57C-1.574,-4.181,-1.766,-3.632,-1.733,-2.926C-1.733,-2.926,-1.665,-1.433,-1.665,-1.433C-1.665,-1.433,0.936,-1.552,0.936,-1.552C1.996,-1.601,2.501,-2.171,2.451,-3.263Z" /></g><g id="i32" transform="matrix(1,0,0,1,391.578,457.356)"><path fill="url(#i19)" d="M5.137,16.301C5.15,16.59,3.518,16.81,0.243,16.96C-2.328,17.046,-3.618,16.977,-3.628,16.752C-3.628,16.752,-5.136,-16.054,-5.136,-16.054C-5.158,-16.536,-3.613,-16.848,-0.497,-16.991C2.237,-17.02,3.61,-16.922,3.62,-16.697C3.62,-16.697,5.137,16.301,5.137,16.301Z" /></g><g id="i30" transform="matrix(1,0,0,1,404.681,456.754)"><path fill="url(#i20)" d="M5.137,16.301C5.15,16.59,3.518,16.809,0.243,16.96C-2.328,17.046,-3.618,16.977,-3.628,16.752C-3.628,16.752,-5.136,-16.054,-5.136,-16.054C-5.158,-16.536,-3.613,-16.848,-0.497,-16.991C2.237,-17.02,3.61,-16.922,3.62,-16.697C3.62,-16.697,5.137,16.301,5.137,16.301Z" /></g><g id="i31" transform="matrix(1,0,0,1,423.805,460.728)"><path fill="url(#i21)" d="M-7.67,9.574C-9.779,7.45,-10.924,4.431,-11.104,0.512C-11.284,-3.406,-10.421,-6.52,-8.516,-8.828C-6.611,-11.136,-3.956,-12.369,-0.552,-12.525C2.852,-12.681,5.601,-11.697,7.694,-9.573C9.787,-7.449,10.924,-4.427,11.104,-0.509C11.284,3.41,10.429,6.522,8.54,8.829C6.651,11.136,4.003,12.369,0.6,12.525C-2.804,12.681,-5.561,11.698,-7.67,9.574ZM-0.158,-4.481C-1.973,-4.398,-2.812,-2.878,-2.676,0.076C-2.54,3.031,-1.565,4.465,0.25,4.382C2.064,4.299,2.904,2.781,2.768,-0.174C2.632,-3.128,1.656,-4.564,-0.158,-4.481Z" /></g><g id="i24" transform="matrix(1,0,0,1,442.601,454.874)"><path fill="url(#i22)" d="M-4.051,10.005C-4.061,9.78,-2.582,9.6,0.389,9.463C3.359,9.326,4.849,9.354,4.858,9.547C4.858,9.547,5.177,16.484,5.177,16.484C5.192,16.806,3.714,17.033,0.744,17.17C-2.227,17.307,-3.717,17.279,-3.726,17.086C-3.726,17.086,-4.051,10.005,-4.051,10.005ZM3.764,6.749C3.773,6.942,2.629,7.091,0.333,7.196C-1.964,7.302,-3.115,7.275,-3.122,7.114C-3.122,7.114,-5.177,-16.591,-5.177,-16.591C-5.189,-16.847,-3.726,-17.044,-0.787,-17.179C2.151,-17.314,3.626,-17.27,3.636,-17.045C3.636,-17.045,3.764,6.749,3.764,6.749Z" /></g></g><g id="i43" transform="matrix(1,0,0,1,444.615,448.181)"><path fill="#ffffff" d="M0.525,8.842C0.525,8.842,-1.374,-8.357,-0.43,-8.826C0.514,-9.295,0.963,0.1,0.525,8.842Z" /></g><g id="i44" transform="matrix(1,0,0,1,445.989,465.708)"><path fill="#ffffff" d="M1.033,0C1.033,0.571,0.571,1.033,0,1.033C-0.571,1.033,-1.033,0.571,-1.033,0C-1.033,-0.571,-0.571,-1.033,0,-1.033C0.571,-1.033,1.033,-0.571,1.033,0Z" /></g><g id="i45" transform="matrix(1,0,0,1,429.471,454.011)"><path fill="#ffffff" d="M4.02,4.165C4.026,3.206,3.911,0.472,1.925,-1.744C0.218,-3.649,-2.065,-4.271,-3.104,-4.151C-3.302,-4.128,-3.974,-4.011,-4.018,-3.73C-4.109,-3.149,-1.363,-2.743,0.69,-1.204C1.838,-0.344,3.201,1.194,4.02,4.165Z" /></g><g id="i46" transform="matrix(1,0,0,1,407.351,451.908)"><path fill="#ffffff" d="M-0.582,-11.543C0.473,-11.553,0.874,7.735,0.568,11.224C0.261,14.713,-1.006,-11.539,-0.582,-11.543Z" /></g><g id="i47" transform="matrix(1,0,0,1,380.021,454.317)"><path fill="#ffffff" d="M2.888,2.563C2.426,-0.045,-0.552,-2.973,-2.41,-2.515C-4.269,-2.057,-0.208,-0.647,1.248,0.611C2.704,1.869,2.888,2.563,2.888,2.563Z" /></g><g id="i48" transform="matrix(1,0,0,1,368.119,471.024)"><path fill="#ffffff" d="M-1.525,0.711C0.634,3.105,3.718,3.566,3.761,3.464C3.807,3.357,0.384,2.898,-1.417,0.15C-2.264,-1.142,-3.103,-3.476,-3.661,-3.477C-3.674,-3.477,-3.696,-3.476,-3.716,-3.462C-4.002,-3.254,-2.908,-0.822,-1.525,0.711Z" /></g><g id="i37" transform="matrix(1,0,0,1,356.35,457.033)"><path fill="#ffffff" d="M2.338,14.215C1.649,15.161,1.557,-9.179,1.117,-11.558C1.117,-11.558,1.117,-11.559,1.117,-11.715C1.108,-11.871,1.098,-12.183,1.089,-12.808C1.087,-12.946,0.96,-13.423,0.849,-13.523C-0.053,-14.339,-4.017,-13.929,-2.328,-14.149C-0.835,-14.344,0.888,-14.198,1.327,-14.04C1.519,-13.971,1.53,-13.598,1.576,-13.46C2.439,-8.638,3.257,12.966,2.338,14.215Z" /></g><g id="i29" transform="matrix(1,0,0,1,442.496,429.216)"><path fill="#ffffff" d="M22.555,15.773C21.501,16.556,14.161,2.348,-4.168,-7.39C-14.48,-12.868,-22.893,-14.074,-22.673,-15.07C-22.415,-16.237,-10.394,-16.668,0.504,-11.216C16.872,-3.027,23.695,14.926,22.555,15.773Z" /></g><g id="i32" transform="matrix(1,0,0,1,466.428,450.464)"><path fill="#ffffff" d="M1.255,0C1.255,0.693,0.693,1.255,0,1.255C-0.693,1.255,-1.255,0.693,-1.255,0C-1.255,-0.693,-0.693,-1.255,0,-1.255C0.693,-1.255,1.255,-0.693,1.255,0Z" /></g><g id="i30" transform="matrix(1,0,0,1,368.205,414.359)"><path fill="#ffffff" d="M8.804,0C8.804,1.105,4.862,2,0,2C-4.862,2,-8.804,1.105,-8.804,0C-8.804,-1.105,-4.862,-2,0,-2C4.862,-2,8.804,-1.105,8.804,0Z" /></g><g id="i31" transform="matrix(1,0,0,1,385.396,414.359)"><path fill="#ffffff" d="M2.384,0C2.384,0.598,1.317,1.083,0,1.083C-1.317,1.083,-2.384,0.598,-2.384,0C-2.384,-0.598,-1.317,-1.083,0,-1.083C1.317,-1.083,2.384,-0.598,2.384,0Z" /></g><g id="i24" transform="matrix(1,0,0,1,453.242,507.966)"><path fill="#ffffff" d="M0.425,2.367C1.856,6.385,3.354,8.733,3.008,8.95C2.618,9.195,0.037,6.639,-1.492,3.284C-4.167,-2.586,-2.729,-8.947,-2.158,-8.966C-1.678,-8.982,-2.022,-4.505,0.425,2.367Z" /></g></g></g></g></g></svg>